<svg id="Layer_1" data-name="Layer 1" xmlns="http://www.w3.org/2000/svg" viewBox="0 0 360 360"><defs><style>.cls-1{fill:#fff;}</style></defs><path class="cls-1" d="M239.9,161.73a3.65,3.65,0,0,1-.27.3,84.52,84.52,0,0,1-13.82,12.32,79.73,79.73,0,0,1-10,6.12,86.31,86.31,0,0,1-9.58,4.17c-1.14.42-2.21.8-3.2,1.15,0,0-1.92.67-4.73,1.41a50.19,50.19,0,0,1-12.85,1.89,12.37,12.37,0,0,1-6.38-1.56,7.17,7.17,0,0,1-.87-.69.44.44,0,0,1-.12-.11,6.28,6.28,0,0,1-1.95-5,7.49,7.49,0,0,1,5.28-6.74v.05a4.76,4.76,0,0,0,.55,4.6,7.24,7.24,0,0,0,4.14,2.2,22.62,22.62,0,0,0,4.78.47h.72a62.48,62.48,0,0,0,12-1.55c1.89-.41,3.81-.89,5.74-1.43,1.25-.35,2.5-.74,3.74-1.18a78.3,78.3,0,0,0,17.43-8.95C232.55,167.84,238,163.21,239.9,161.73Z"/><path class="cls-1" d="M252.6,151.06c-1,1-6.54,4.6-6.54,4.6l-1.79,7-2.89,1.78.92-6.41-7.66,4.31-5.46-2,2.79-1.73,2.44.76,5.88-4.19-4.16-1.53,1.86-1.32,5.33.81s3.27-2.18,4.65-2.89C250.78,148.84,253.7,150,252.6,151.06Z"/><path class="cls-1" d="M192.15,158.13A14.16,14.16,0,0,0,178,144H154.38v47.21H178a14.09,14.09,0,0,0,5.13-1,11.45,11.45,0,0,1-4.81-1.59,8.35,8.35,0,0,1-1-.83l-.15-.14a7.57,7.57,0,0,1-2.35-5.92h-11V172.3H178a4.67,4.67,0,0,1,3.29,1.34l.05,0a4.67,4.67,0,0,1,1.2,2,4.71,4.71,0,0,1,0,2.47h0a2.64,2.64,0,0,0,.15.29c.55.95,1.77,1.65,3.63,2.07a20.67,20.67,0,0,0,4.49.45h.75a13.85,13.85,0,0,0,.57-4,14.1,14.1,0,0,0-3.61-9.45A14.06,14.06,0,0,0,192.15,158.13Zm-28.33,4.72v-9.44H178a4.72,4.72,0,0,1,0,9.44Z"/><path class="cls-1" d="M144.94,158.13A14.16,14.16,0,0,0,130.77,144h-23.6v47.21h23.6a14.16,14.16,0,0,0,10.55-23.61A14.06,14.06,0,0,0,144.94,158.13Zm-28.33-4.72h14.16a4.72,4.72,0,1,1,0,9.44H116.61Zm14.16,28.33H116.61V172.3h14.16a4.72,4.72,0,1,1,0,9.44Z"/><path class="cls-1" d="M209,178.08c-2,.57-4,1-5.94,1.46a18.78,18.78,0,0,1-1.44-7.24V144H211V172.3a9.28,9.28,0,0,0,1.28,4.73C211.2,177.42,210.09,177.77,209,178.08Z"/><path class="cls-1" d="M239.37,181.74v9.44H220.48a18.85,18.85,0,0,1-13.33-5.5,85.1,85.1,0,0,0,10.12-4.5,9.54,9.54,0,0,0,3.21.56Z"/><path class="cls-1" d="M87.55,212.79c0,2.05-1.63,3.24-4.76,3.24H76.63V204.14h5.82c3,0,4.5,1.24,4.5,3.09a2.86,2.86,0,0,1-1.58,2.62A2.93,2.93,0,0,1,87.55,212.79Zm-8.18-6.58V209h2.74c1.34,0,2.07-.47,2.07-1.41s-.73-1.39-2.07-1.39Zm5.41,6.29c0-1-.77-1.48-2.2-1.48H79.37V214h3.21C84,214,84.78,213.52,84.78,212.5Z"/><path class="cls-1" d="M89.64,204.14H92.4v9.65h6V216H89.64Z"/><path class="cls-1" d="M107.85,213.48h-5.52l-1,2.55H98.45l5.31-11.89h2.72L111.8,216h-2.89Zm-.86-2.09-1.89-4.55-1.89,4.55Z"/><path class="cls-1" d="M122.68,213.79V216h-10.4v-1.78l6.53-7.87h-6.39v-2.24h10v1.78l-6.51,7.87Z"/><path class="cls-1" d="M133.67,213.82V216h-9.21V204.14h9v2.2h-6.26v2.59h5.52v2.14h-5.52v2.75Z"/><path class="cls-1" d="M151.59,212.79c0,2.05-1.63,3.24-4.76,3.24h-6.15V204.14h5.81c3,0,4.5,1.24,4.5,3.09a2.86,2.86,0,0,1-1.58,2.62A2.93,2.93,0,0,1,151.59,212.79Zm-8.18-6.58V209h2.74c1.34,0,2.07-.47,2.07-1.41s-.73-1.39-2.07-1.39Zm5.41,6.29c0-1-.77-1.48-2.19-1.48h-3.22V214h3.22C148.05,214,148.82,213.52,148.82,212.5Z"/><path class="cls-1" d="M161.27,216l-2.3-3.31h-2.53V216h-2.75V204.14h5.15c3.18,0,5.16,1.64,5.16,4.31a3.87,3.87,0,0,1-2.44,3.76l2.67,3.82Zm-2.59-9.65h-2.24v4.15h2.24c1.69,0,2.54-.79,2.54-2.08S160.37,206.38,158.68,206.38Z"/><path class="cls-1" d="M174,213.48H168.5L167.44,216h-2.82l5.31-11.89h2.71L178,216h-2.88Zm-.87-2.09-1.88-4.55-1.89,4.55Z"/><path class="cls-1" d="M190.12,204.14V216h-2.25l-5.94-7.22V216h-2.72V204.14h2.28l5.92,7.22v-7.22Z"/><path class="cls-1" d="M193,204.14h5.41c3.89,0,6.56,2.34,6.56,5.94s-2.67,5.95-6.56,5.95H193Zm5.27,9.63c2.36,0,3.91-1.41,3.91-3.69s-1.55-3.68-3.91-3.68h-2.51v7.37Z"/><path class="cls-1" d="M211.81,204.14h2.76v9.65h6V216h-8.72Z"/><path class="cls-1" d="M222.08,204.14h2.76V216h-2.76Z"/><path class="cls-1" d="M238.49,216l0-7.14-3.5,5.89h-1.24l-3.49-5.73v7h-2.58V204.14h2.28l4.45,7.39,4.39-7.39H241l0,11.89Z"/><path class="cls-1" d="M243.9,204.14h2.75V216H243.9Z"/><path class="cls-1" d="M251.94,206.38h-3.81v-2.24H258.5v2.24h-3.8V216h-2.76Z"/><path class="cls-1" d="M269.2,213.82V216H260V204.14h9v2.2h-6.26v2.59h5.53v2.14h-5.53v2.75Z"/><path class="cls-1" d="M271.4,204.14h5.4c3.9,0,6.57,2.34,6.57,5.94S280.7,216,276.8,216h-5.4Zm5.27,9.63c2.36,0,3.91-1.41,3.91-3.69s-1.55-3.68-3.91-3.68h-2.52v7.37Z"/></svg>